<?xml version="1.0" encoding="UTF-8"?>
<!DOCTYPE svg PUBLIC "-//W3C//DTD SVG 1.1//EN" "http://www.w3.org/Graphics/SVG/1.1/DTD/svg11.dtd">
<!-- Creator: CorelDRAW 2020 (64-Bit) -->
<svg xmlns="http://www.w3.org/2000/svg" xml:space="preserve" width="8.255mm" height="8.255mm" version="1.1" style="shape-rendering:geometricPrecision; text-rendering:geometricPrecision; image-rendering:optimizeQuality; fill-rule:evenodd; clip-rule:evenodd"
viewBox="0 0 62.27 62.27"
 xmlns:xlink="http://www.w3.org/1999/xlink"
 xmlns:xodm="http://www.corel.com/coreldraw/odm/2003">
 <defs>
  <style type="text/css">
   <![CDATA[
    .fil0 {fill:#A20A0A}
    .fil1 {fill:#FEFEFE}
   ]]>
  </style>
 </defs>
 <g id="Capa_x0020_1">
  <metadata id="CorelCorpID_0Corel-Layer"/>
  <rect class="fil0" width="62.27" height="62.27"/>
  <path class="fil1" d="M60.84 22.24c0,0 -4.77,4.69 -6.7,5.99 0,0 0.28,0.82 -1.47,2.26 -1.75,1.44 -5.09,4.73 -16.12,10.62 0,0 -1.07,-0.24 -1.16,-0.18 -0.09,0.06 -4.54,2.43 -5.71,5.15 -1.17,2.71 -0.81,2.86 -1.68,3.85 -0.87,0.99 -0.59,2.11 -0.59,2.11 0,0 1.35,-2.41 3.68,-1.94 2.33,0.48 6.11,0.38 6.45,-0.27 0,0 0.95,-1.89 0.02,-4.05 0,0 1.5,-0.08 1.6,4.39 0,0 2.52,-0.6 4.31,-2.01 0,0 0.51,-1.52 -0.42,-2.61 -0.93,-1.08 -1.37,-2.42 -1.37,-2.42 0,0 1.7,1.05 2.26,2.49 0.56,1.44 0.22,2.43 0.22,2.43 0,0 1.54,-0.45 3.01,-1.5 1.48,-1.04 2.1,-1.57 1.5,-2.7 -0.6,-1.13 -2.32,-3.1 -3.22,-3.65 0,0 3.32,-0.2 4.3,3.84 0,0 1.92,-0.41 2.23,-2.56 0.31,-2.15 -1.45,-4.9 -4.03,-4.67 0,0 0.59,-0.8 1.79,-0.43 1.19,0.37 2.82,2.23 2.97,2.64 0,0 1.09,0.4 1.79,-0.39 0.7,-0.78 1.53,-1.43 1.81,-3.01 0,0 -0.05,-1.75 -5,-0.83 0,0 0.73,-1.59 3.32,-1.07 2.59,0.53 3.36,-0.92 3.36,-0.92l0.36 -1.44c0,0 -3.35,-0.21 -5.19,0.8 0,0 -0.25,-1.76 5.17,-2 0,0 1.97,-3.78 2.53,-7.93zm-37.83 23.81c0,0 -0.55,-1.56 -0.42,-2.54 0.13,-0.97 -1.92,-3.21 -2.29,-4.92 -0.37,-1.71 -3.7,-5.95 -6.97,-7.14 -3.27,-1.19 -3.75,-1.25 -4.52,-1.88 -0.77,-0.63 -6.12,-0.91 -8.29,-2.95 0,0 0.16,4.6 2.89,9.01 2.73,4.4 5.01,7.83 8.15,9.55 3.14,1.73 8.66,2.24 11.5,4.69 0,0 -0.2,-2.98 -1.91,-4.22 -1.7,-1.24 -3.12,-1.26 -3.12,-1.26 0,0 0.13,-0.47 1.34,-0.35 0,0 -0.27,-0.93 -0.7,-1.22 0,0 -1.5,-0.6 -2.67,-0.58 -1.17,0.02 -2.26,-0.69 -2.26,-0.69 0,0 0.03,-0.53 4.18,0.43 0,0 -2.32,-2.87 -2.94,-3.16 0,0 -4.2,-0.57 -5,-0.22 0,0 1.3,-0.65 3.94,-0.42 0,0 -1.47,-2.05 -3.54,-2.64 -2.07,-0.59 -4.19,-0.97 -4.43,-1.41 0,0 1.24,0.04 3.55,0.62 0,0 -5.09,-4.3 -5.48,-5.25 0,0 0.39,-0.45 1.13,0.29 0.74,0.74 2.53,0.66 2.53,0.66 0,0 0.75,1.52 1.8,3 0,0 0.93,0.58 1.38,0.81 0,0 0.19,-1.23 -0.57,-2.3 0,0 1.63,1.5 1.16,2.49l3 2.61c0,0 0.44,-1.35 -0.1,-2.51 0,0 1.26,1.1 0.65,2.9 0,0 2.3,2.19 3.16,3.48 0,0 0.59,-1.18 -0.15,-2.42 0,0 1.41,1.23 0.68,2.85 0,0 0.87,1.2 1.64,1.81 0.77,0.6 0.52,-0.79 0.52,-0.79 0,0 0.36,1.08 0.18,1.39 -0.18,0.31 0.02,1.31 1.94,2.29zm3.29 5.86c0,0 -0.47,0.36 -0.66,0.9 -0.19,0.54 -0.02,1.52 -1.4,4.36 -1.24,2.55 -1.57,3.21 -2.15,5.09l-1.36 0c0.43,-1.27 1.12,-2.93 2.09,-4.15 1.79,-2.26 1.98,-5.66 1.54,-6.46 -0.44,-0.8 -0.97,-3.01 -0.83,-3.86 0.14,-0.85 -0.01,0.08 -0.01,0.08 0,0 0.29,0.76 0.48,0.55 0,0 -0.15,0.83 1.21,3.56 0,0 0.31,0.4 1.07,-0.07zm35.44 -31.64c0,0 -3.56,4.04 -6.54,5.95 0,0 -2.25,-0.26 -2.53,-0.93 0,0 0.87,1.24 0.92,2.26 0,0 -0.55,1.63 -2.39,2.37 0,0 0.04,-2.48 -1.88,-2.74 0,0 1.4,2.29 0.96,3.28 -0.44,0.99 -1.21,2.31 -3.49,2.53 0,0 -0,-3.02 -2.88,-3.7 0,0 1.81,1.77 1.93,2.86 0.12,1.09 0.37,1.34 -0.98,2.36 -1.35,1.02 -2.28,1.11 -2.28,1.11 0,0 0.84,-4 -2.04,-4.56 0,0 2.04,1.76 1.08,4.02 -0.95,2.26 -1.9,2.65 -1.9,2.65 0,0 -4.16,-4.16 -6.91,-1.51 0,0 4.16,-0.28 5.29,1.96 0,0 -2.09,1.87 -3.79,2.31 0,0 -1.87,-1.84 -4.32,-1.02 0,0 3.03,0.88 2.95,1.73 -0.09,0.85 -0.91,0.73 -1.92,1.96 -1.01,1.23 -2.01,-0.95 -3.27,-0.84 0,0 1.71,1.47 1.53,2.59 -0.18,1.13 -2.61,3.73 -2.94,5.82 0,0 -1.13,-3.37 0.09,-8.17 1.22,-4.8 13.49,-13.08 14.94,-14.11 1.45,-1.03 1.33,-1.19 2.64,-1.17 1.32,0.01 3.56,-1.31 4.12,-1.77 0.56,-0.45 1.08,-0.66 3.02,-0.37 0,0 2.6,-1.77 5.65,-2.23 0,0 0.07,0.44 4.94,-2.63z"/>
 </g>
</svg>
