<?xml version="1.0" encoding="UTF-8"?>
<!DOCTYPE svg PUBLIC "-//W3C//DTD SVG 1.1//EN" "http://www.w3.org/Graphics/SVG/1.1/DTD/svg11.dtd">
<!-- Creator: CorelDRAW 2020 (64-Bit) -->
<svg xmlns="http://www.w3.org/2000/svg" xml:space="preserve" width="39.3034mm" height="27.9046mm" version="1.1" style="shape-rendering:geometricPrecision; text-rendering:geometricPrecision; image-rendering:optimizeQuality; fill-rule:evenodd; clip-rule:evenodd"
viewBox="0 0 733.08 520.47"
 xmlns:xlink="http://www.w3.org/1999/xlink"
 xmlns:xodm="http://www.corel.com/coreldraw/odm/2003">
 <defs>
  <style type="text/css">
   <![CDATA[
    .fil0 {fill:#A20A0A}
    .fil2 {fill:#FEFEFE}
    .fil1 {fill:#FEFEFE;fill-rule:nonzero}
   ]]>
  </style>
 </defs>
 <g id="Capa_x0020_1">
  <metadata id="CorelCorpID_0Corel-Layer"/>
  <polygon class="fil0" points="-0,0 733.08,0 733.08,520.47 -0,520.47 "/>
  <path class="fil1" d="M167.59 432.9c-0.05,0.29 -0.09,0.59 -0.1,0.85 -0.02,0.28 -0.02,0.55 -0.02,0.83 0,1.42 0.26,2.61 0.77,3.61 0.5,1 1.23,1.8 2.17,2.42 0.94,0.61 2.09,1.07 3.41,1.35 1.34,0.28 2.83,0.42 4.49,0.42 1.64,0 3.22,-0.18 4.71,-0.51 1.49,-0.35 2.81,-0.87 3.92,-1.54 1.13,-0.69 2.04,-1.54 2.7,-2.55 0.67,-1.02 1.01,-2.2 1.01,-3.52 0,-0.85 -0.17,-1.63 -0.48,-2.34 -0.31,-0.7 -0.74,-1.35 -1.27,-1.94 -0.55,-0.59 -1.2,-1.14 -1.94,-1.63 -0.75,-0.5 -1.56,-0.97 -2.43,-1.42 -0.87,-0.45 -1.8,-0.87 -2.78,-1.26 -0.97,-0.41 -1.95,-0.82 -2.96,-1.23 -1.04,-0.43 -2.1,-0.87 -3.15,-1.31 -1.04,-0.45 -2.04,-0.93 -3,-1.44 -0.94,-0.51 -1.83,-1.06 -2.65,-1.65 -0.82,-0.6 -1.52,-1.25 -2.12,-1.98 -0.6,-0.73 -1.07,-1.52 -1.4,-2.39 -0.34,-0.88 -0.51,-1.85 -0.51,-2.91 0,-1.31 0.22,-2.54 0.68,-3.69 0.45,-1.14 1.08,-2.18 1.88,-3.14 0.82,-0.96 1.78,-1.8 2.91,-2.55 1.13,-0.74 2.36,-1.38 3.72,-1.9 1.35,-0.51 2.79,-0.91 4.32,-1.18 1.52,-0.27 3.1,-0.4 4.71,-0.4 0.74,0 1.51,0.03 2.34,0.1 0.84,0.06 1.68,0.17 2.52,0.31 0.84,0.14 1.63,0.31 2.4,0.5 0.75,0.19 1.42,0.41 2.02,0.66 0.58,0.24 1.04,0.52 1.4,0.82 0.34,0.31 0.51,0.62 0.51,0.96 0,0.36 0,0.82 -0.02,1.35 -0.02,0.55 -0.04,1.16 -0.07,1.85 -0.02,0.69 -0.05,1.44 -0.1,2.26 -0.05,0.82 -0.12,1.68 -0.19,2.59l-2.53 -0.09c0.05,-0.45 0.09,-0.88 0.09,-1.29 0,-1.24 -0.26,-2.32 -0.73,-3.27 -0.5,-0.93 -1.2,-1.72 -2.09,-2.35 -0.89,-0.64 -1.97,-1.11 -3.23,-1.43 -1.27,-0.32 -2.66,-0.47 -4.19,-0.47 -1.54,0 -2.98,0.19 -4.3,0.57 -1.33,0.37 -2.48,0.91 -3.46,1.58 -0.98,0.68 -1.73,1.49 -2.28,2.42 -0.55,0.93 -0.84,1.96 -0.84,3.09 0,0.91 0.17,1.74 0.48,2.48 0.33,0.74 0.75,1.42 1.32,2.04 0.57,0.62 1.23,1.19 2,1.7 0.77,0.51 1.59,1 2.5,1.45 0.91,0.45 1.85,0.88 2.86,1.3 1.01,0.41 2.02,0.82 3.03,1.22 1.06,0.42 2.11,0.84 3.15,1.28 1.04,0.43 2.06,0.91 3,1.39 0.96,0.5 1.83,1.03 2.65,1.61 0.81,0.57 1.51,1.23 2.11,1.93 0.58,0.7 1.06,1.48 1.4,2.32 0.34,0.85 0.51,1.79 0.51,2.83 0,1.7 -0.31,3.22 -0.94,4.53 -0.63,1.33 -1.48,2.48 -2.52,3.46 -1.06,0.97 -2.26,1.8 -3.63,2.48 -1.37,0.68 -2.77,1.21 -4.25,1.62 -1.47,0.42 -2.94,0.71 -4.42,0.89 -1.47,0.18 -2.84,0.27 -4.09,0.27 -1.65,0 -3.2,-0.08 -4.66,-0.25 -1.46,-0.17 -2.74,-0.38 -3.84,-0.66 -1.09,-0.27 -1.95,-0.59 -2.58,-0.94 -0.62,-0.35 -0.93,-0.71 -0.93,-1.09 0,-0.84 0.04,-2.04 0.1,-3.6 0.09,-1.56 0.21,-3.41 0.36,-5.55l2.53 0.1zm55.55 -26.16c0,-0.52 -0.05,-0.97 -0.17,-1.34 -0.1,-0.37 -0.31,-0.68 -0.6,-0.91 -0.29,-0.23 -0.68,-0.4 -1.21,-0.51 -0.52,-0.1 -1.18,-0.15 -2.01,-0.15 -0.53,0 -1.13,0.02 -1.8,0.06 -0.68,0.04 -1.44,0.1 -2.29,0.18l-0.27 -1.74c1.65,-0.19 3.17,-0.36 4.57,-0.5 1.4,-0.14 2.72,-0.27 3.94,-0.37 1.23,-0.11 2.38,-0.19 3.46,-0.24 1.06,-0.05 2.07,-0.08 3.03,-0.08 2.64,0 5.16,-0.01 7.52,-0.04 2.36,-0.04 4.47,-0.07 6.3,-0.1 1.81,-0.03 3.32,-0.06 4.5,-0.09 1.18,-0.03 1.9,-0.05 2.18,-0.05 0.77,0 1.35,0.14 1.76,0.41 0.41,0.27 0.62,0.68 0.62,1.24 0,0.23 -0.04,0.66 -0.09,1.31 -0.05,0.65 -0.14,1.39 -0.22,2.23 -0.1,0.84 -0.21,1.72 -0.33,2.67 -0.1,0.93 -0.24,1.8 -0.38,2.61l-2.4 -0.06c0.03,-0.47 0.05,-0.91 0.07,-1.33 0.02,-0.41 0.03,-0.79 0.03,-1.16 0,-1.05 -0.09,-1.89 -0.26,-2.54 -0.17,-0.66 -0.48,-1.17 -0.91,-1.54 -0.44,-0.38 -1.06,-0.64 -1.83,-0.77 -0.77,-0.14 -1.75,-0.22 -2.93,-0.23 -1.66,-0.01 -3.12,-0.03 -4.37,-0.03 -1.25,-0.01 -2.45,-0.01 -3.61,-0.01l-1.32 0c-0.65,0 -1.28,0 -1.95,0.01 -0.67,0 -1.45,0.03 -2.4,0.04 -0.03,1.05 -0.07,2.2 -0.1,3.47 -0.05,1.28 -0.1,2.64 -0.15,4.11 -0.04,1.45 -0.1,3 -0.15,4.62 -0.05,1.62 -0.12,3.28 -0.19,5 2.16,0.08 4.08,0.13 5.74,0.17 1.68,0.03 3.22,0.04 4.64,0.04 1.73,0 3.25,-0.04 4.59,-0.12 1.32,-0.09 2.59,-0.22 3.77,-0.38 0.27,0.55 0.41,1.03 0.41,1.47 0,0.37 -0.15,0.68 -0.46,0.92 -0.29,0.26 -0.72,0.46 -1.27,0.61 -0.57,0.15 -1.23,0.27 -2.02,0.33 -0.77,0.08 -1.66,0.1 -2.62,0.1 -1.73,0 -3.68,-0.06 -5.85,-0.22 -2.19,-0.14 -4.52,-0.32 -7.02,-0.52 -0.04,0.72 -0.07,1.58 -0.12,2.6 -0.05,1.02 -0.12,2.09 -0.17,3.24 -0.07,1.15 -0.15,2.32 -0.24,3.52 -0.1,1.21 -0.19,2.36 -0.27,3.46 -0.1,1.11 -0.21,2.12 -0.31,3.04 -0.1,0.9 -0.22,1.66 -0.34,2.25 1.62,-0.18 3.2,-0.31 4.74,-0.38 1.54,-0.08 2.93,-0.11 4.19,-0.11 1.75,0 3.39,0.02 4.92,0.1 1.54,0.07 3.05,0.1 4.55,0.1 1.01,0 1.89,-0.1 2.66,-0.32 0.75,-0.2 1.42,-0.56 1.98,-1.1 0.58,-0.52 1.05,-1.24 1.42,-2.14 0.38,-0.89 0.67,-2.03 0.89,-3.42l2.26 0.1c-0.05,2.09 -0.26,3.81 -0.6,5.17 -0.36,1.37 -0.84,2.44 -1.47,3.21 -0.63,0.79 -1.39,1.34 -2.3,1.63 -0.91,0.31 -1.92,0.46 -3.06,0.46 -0.89,0 -1.89,-0.05 -2.98,-0.18 -1.08,-0.13 -2.28,-0.27 -3.56,-0.42 -1.28,-0.15 -2.69,-0.29 -4.18,-0.42 -1.49,-0.13 -3.1,-0.19 -4.83,-0.19 -1.52,0 -3.2,0.08 -5.03,0.22 -1.83,0.14 -3.7,0.38 -5.62,0.71l-0.46 -0.04c0.26,-1.24 0.48,-2.74 0.67,-4.52 0.19,-1.77 0.36,-3.7 0.51,-5.81 0.15,-2.09 0.27,-4.31 0.38,-6.65 0.1,-2.32 0.19,-4.68 0.26,-7.06 0.07,-2.37 0.1,-4.72 0.14,-7.04 0.01,-2.32 0.03,-4.53 0.03,-6.61zm58.41 0.1c0,-0.59 -0.03,-1.1 -0.12,-1.51 -0.07,-0.42 -0.24,-0.77 -0.51,-1.02 -0.26,-0.27 -0.65,-0.45 -1.13,-0.57 -0.5,-0.12 -1.15,-0.18 -1.97,-0.18 -0.57,0 -1.23,0.03 -2.04,0.06 -0.81,0.05 -1.65,0.12 -2.5,0.22l-0.26 -1.54c2.45,-0.47 4.57,-0.83 6.34,-1.05 1.76,-0.23 3.22,-0.35 4.37,-0.35 1.11,0 1.95,0.12 2.55,0.33 0.6,0.22 1.03,0.54 1.3,0.97 0.27,0.43 0.45,0.96 0.5,1.58 0.05,0.62 0.07,1.33 0.07,2.13 0,0.05 0,0.46 -0.02,1.24 -0.02,0.77 -0.05,1.79 -0.09,3.08 -0.05,1.28 -0.1,2.75 -0.15,4.44 -0.07,1.68 -0.14,3.48 -0.21,5.37 -0.07,1.88 -0.15,3.83 -0.26,5.82 -0.1,1.99 -0.22,3.93 -0.34,5.8 -0.12,1.89 -0.26,3.67 -0.39,5.35 -0.15,1.68 -0.31,3.15 -0.48,4.41 1.61,-0.18 3.13,-0.31 4.55,-0.38 1.42,-0.08 2.74,-0.11 3.96,-0.11 1.73,0 3.34,0.02 4.83,0.1 1.49,0.07 2.98,0.1 4.42,0.1 1.03,0 1.93,-0.11 2.72,-0.34 0.8,-0.22 1.49,-0.61 2.05,-1.18 0.57,-0.56 1.05,-1.33 1.42,-2.28 0.38,-0.96 0.65,-2.18 0.86,-3.66l2.19 0.13c-0.02,2.19 -0.21,4.01 -0.55,5.42 -0.34,1.4 -0.84,2.53 -1.47,3.34 -0.63,0.82 -1.4,1.38 -2.31,1.7 -0.9,0.32 -1.95,0.47 -3.11,0.47 -0.89,0 -1.87,-0.05 -2.95,-0.18 -1.06,-0.13 -2.23,-0.27 -3.49,-0.42 -1.27,-0.15 -2.64,-0.29 -4.11,-0.42 -1.47,-0.13 -3.05,-0.19 -4.76,-0.19 -1.52,0 -3.17,0.08 -4.95,0.22 -1.78,0.14 -3.61,0.38 -5.48,0.71l-0.46 -0.04c0.29,-1.7 0.53,-3.53 0.74,-5.5 0.22,-1.97 0.39,-4.01 0.53,-6.13 0.14,-2.12 0.27,-4.29 0.36,-6.49 0.1,-2.22 0.19,-4.44 0.24,-6.66 0.05,-2.22 0.07,-4.4 0.09,-6.56 0.01,-2.16 0.03,-4.24 0.03,-6.24zm56.73 -0.1c0,-0.52 -0.05,-0.97 -0.17,-1.34 -0.1,-0.37 -0.31,-0.68 -0.6,-0.91 -0.29,-0.23 -0.68,-0.4 -1.21,-0.51 -0.52,-0.1 -1.18,-0.15 -2.01,-0.15 -0.53,0 -1.13,0.02 -1.8,0.06 -0.68,0.04 -1.44,0.1 -2.29,0.18l-0.27 -1.74c1.65,-0.19 3.17,-0.36 4.57,-0.5 1.4,-0.14 2.72,-0.27 3.94,-0.37 1.23,-0.11 2.38,-0.19 3.46,-0.24 1.06,-0.05 2.07,-0.08 3.03,-0.08 2.64,0 5.16,-0.01 7.52,-0.04 2.36,-0.04 4.47,-0.07 6.3,-0.1 1.81,-0.03 3.32,-0.06 4.5,-0.09 1.18,-0.03 1.9,-0.05 2.17,-0.05 0.77,0 1.35,0.14 1.77,0.41 0.41,0.27 0.62,0.68 0.62,1.24 0,0.23 -0.04,0.66 -0.09,1.31 -0.05,0.65 -0.14,1.39 -0.22,2.23 -0.1,0.84 -0.21,1.72 -0.33,2.67 -0.1,0.93 -0.24,1.8 -0.38,2.61l-2.4 -0.06c0.03,-0.47 0.05,-0.91 0.07,-1.33 0.02,-0.41 0.04,-0.79 0.04,-1.16 0,-1.05 -0.09,-1.89 -0.26,-2.54 -0.17,-0.66 -0.48,-1.17 -0.91,-1.54 -0.44,-0.38 -1.06,-0.64 -1.83,-0.77 -0.77,-0.14 -1.75,-0.22 -2.93,-0.23 -1.66,-0.01 -3.12,-0.03 -4.37,-0.03 -1.25,-0.01 -2.45,-0.01 -3.61,-0.01l-1.32 0c-0.65,0 -1.28,0 -1.95,0.01 -0.67,0 -1.45,0.03 -2.4,0.04 -0.03,1.05 -0.07,2.2 -0.1,3.47 -0.05,1.28 -0.1,2.64 -0.15,4.11 -0.04,1.45 -0.1,3 -0.15,4.62 -0.05,1.62 -0.12,3.28 -0.19,5 2.16,0.08 4.08,0.13 5.74,0.17 1.68,0.03 3.22,0.04 4.64,0.04 1.73,0 3.25,-0.04 4.59,-0.12 1.32,-0.09 2.59,-0.22 3.77,-0.38 0.27,0.55 0.41,1.03 0.41,1.47 0,0.37 -0.15,0.68 -0.46,0.92 -0.29,0.26 -0.72,0.46 -1.27,0.61 -0.57,0.15 -1.23,0.27 -2.02,0.33 -0.77,0.08 -1.66,0.1 -2.62,0.1 -1.73,0 -3.68,-0.06 -5.85,-0.22 -2.19,-0.14 -4.52,-0.32 -7.02,-0.52 -0.04,0.72 -0.07,1.58 -0.12,2.6 -0.05,1.02 -0.12,2.09 -0.17,3.24 -0.07,1.15 -0.15,2.32 -0.24,3.52 -0.1,1.21 -0.19,2.36 -0.27,3.46 -0.1,1.11 -0.21,2.12 -0.31,3.04 -0.1,0.9 -0.22,1.66 -0.34,2.25 1.62,-0.18 3.2,-0.31 4.74,-0.38 1.54,-0.08 2.93,-0.11 4.19,-0.11 1.75,0 3.39,0.02 4.92,0.1 1.54,0.07 3.05,0.1 4.55,0.1 1.01,0 1.89,-0.1 2.66,-0.32 0.75,-0.2 1.42,-0.56 1.98,-1.1 0.58,-0.52 1.05,-1.24 1.42,-2.14 0.38,-0.89 0.67,-2.03 0.89,-3.42l2.26 0.1c-0.05,2.09 -0.26,3.81 -0.6,5.17 -0.36,1.37 -0.84,2.44 -1.47,3.21 -0.63,0.79 -1.39,1.34 -2.3,1.63 -0.91,0.31 -1.92,0.46 -3.06,0.46 -0.89,0 -1.89,-0.05 -2.98,-0.18 -1.08,-0.13 -2.28,-0.27 -3.56,-0.42 -1.29,-0.15 -2.69,-0.29 -4.18,-0.42 -1.49,-0.13 -3.1,-0.19 -4.83,-0.19 -1.52,0 -3.2,0.08 -5.03,0.22 -1.83,0.14 -3.7,0.38 -5.62,0.71l-0.46 -0.04c0.26,-1.24 0.48,-2.74 0.67,-4.52 0.19,-1.77 0.36,-3.7 0.51,-5.81 0.15,-2.09 0.27,-4.31 0.38,-6.65 0.1,-2.32 0.19,-4.68 0.26,-7.06 0.07,-2.37 0.1,-4.72 0.14,-7.04 0.01,-2.32 0.03,-4.53 0.03,-6.61zm79.8 -6.81c2.19,0 4.21,0.14 6.08,0.45 1.87,0.29 3.47,0.66 4.83,1.1 1.35,0.43 2.41,0.91 3.18,1.4 0.77,0.5 1.16,0.96 1.16,1.37 0,0.85 -0.05,1.98 -0.14,3.34 -0.09,1.38 -0.19,3.04 -0.32,4.98l-2.17 -0.05c0.02,-0.18 0.03,-0.34 0.03,-0.5 0.02,-0.17 0.02,-0.32 0.02,-0.5 -0.02,-0.87 -0.15,-1.68 -0.39,-2.46 -0.24,-0.78 -0.69,-1.52 -1.32,-2.23 -0.67,-0.7 -1.47,-1.34 -2.4,-1.89 -0.92,-0.55 -1.93,-1.01 -3.05,-1.38 -1.1,-0.37 -2.28,-0.66 -3.53,-0.85 -1.25,-0.19 -2.54,-0.29 -3.84,-0.29 -2.24,0 -4.28,0.27 -6.11,0.78 -1.83,0.52 -3.46,1.24 -4.9,2.16 -1.44,0.92 -2.69,1.99 -3.75,3.25 -1.06,1.25 -1.95,2.6 -2.64,4.08 -0.7,1.47 -1.22,3.01 -1.56,4.63 -0.34,1.62 -0.51,3.25 -0.51,4.91 0,1.97 0.22,3.8 0.65,5.54 0.43,1.74 1.06,3.33 1.85,4.78 0.81,1.45 1.78,2.77 2.91,3.92 1.15,1.16 2.41,2.14 3.83,2.95 1.4,0.8 2.95,1.42 4.59,1.84 1.64,0.43 3.37,0.64 5.2,0.64 1.27,0 2.57,-0.1 3.92,-0.31 1.35,-0.21 2.71,-0.52 4.11,-0.97 1.39,-0.45 2.77,-1.01 4.19,-1.68 1.4,-0.68 2.82,-1.49 4.23,-2.44 0.14,0.05 0.29,0.12 0.46,0.19 0.17,0.06 0.34,0.15 0.48,0.24 0.15,0.1 0.29,0.2 0.39,0.32 0.1,0.1 0.17,0.22 0.17,0.33 0,0.08 -0.07,0.18 -0.21,0.32 -1.64,1.34 -3.3,2.48 -4.97,3.38 -1.68,0.9 -3.35,1.65 -5.05,2.21 -1.68,0.56 -3.39,0.96 -5.1,1.2 -1.71,0.24 -3.42,0.37 -5.12,0.37 -2.26,0 -4.42,-0.23 -6.46,-0.7 -2.06,-0.47 -3.96,-1.14 -5.72,-2.02 -1.74,-0.87 -3.34,-1.93 -4.76,-3.16 -1.42,-1.24 -2.64,-2.63 -3.63,-4.17 -1.01,-1.54 -1.78,-3.23 -2.33,-5.04 -0.55,-1.81 -0.82,-3.73 -0.82,-5.74 0,-1.95 0.27,-3.9 0.8,-5.87 0.52,-1.97 1.3,-3.84 2.35,-5.63 1.05,-1.8 2.37,-3.47 3.94,-5.03 1.59,-1.57 3.42,-2.92 5.53,-4.07 2.11,-1.15 4.49,-2.05 7.12,-2.7 2.66,-0.66 5.57,-0.98 8.73,-0.98zm36.12 12.02l-2.48 -0.06c-0.05,-1.51 -0.07,-2.84 -0.07,-4.02 0,-1.2 0.07,-2.25 0.22,-3.11 0.15,-0.87 0.46,-1.57 0.94,-2.13 0.48,-0.56 1.16,-0.98 2.07,-1.24 0.92,-0.27 2.12,-0.4 3.63,-0.4 0.96,0 2.06,0.03 3.29,0.06 1.23,0.03 2.53,0.07 3.9,0.1 1.37,0.04 2.79,0.08 4.23,0.12 1.46,0.04 2.84,0.06 4.21,0.06 2.26,0 4.28,-0.01 6.01,-0.01 1.75,-0.01 3.29,-0.01 4.64,-0.03 1.35,-0.01 2.55,-0.04 3.56,-0.06 1.03,-0.03 1.95,-0.06 2.79,-0.11 0.86,-0.05 1.65,-0.1 2.36,-0.17 0.74,-0.08 1.47,-0.15 2.23,-0.26 0.28,0.6 0.43,1.08 0.43,1.47 0,0.83 -0.46,1.45 -1.4,1.89 -0.92,0.45 -2.29,0.66 -4.13,0.66 -1.71,0 -3.75,-0.08 -6.08,-0.24 -2.33,-0.15 -4.97,-0.31 -7.89,-0.46 -0.04,1.85 -0.1,3.82 -0.17,5.91 -0.09,2.09 -0.15,4.26 -0.24,6.49 -0.09,2.25 -0.17,4.53 -0.27,6.86 -0.08,2.34 -0.19,4.67 -0.29,7.01 -0.09,2.34 -0.19,4.66 -0.28,6.94 -0.1,2.3 -0.19,4.52 -0.27,6.66l-5.94 0.56 -0.45 -0.04c0.12,-2.39 0.26,-4.66 0.38,-6.85 0.1,-2.18 0.22,-4.33 0.32,-6.44 0.09,-2.1 0.19,-4.2 0.27,-6.3 0.09,-2.09 0.16,-4.26 0.19,-6.47 0.05,-2.22 0.1,-4.53 0.14,-6.93 0.04,-2.4 0.05,-4.95 0.05,-7.65 -0.96,-0.03 -1.93,-0.05 -2.91,-0.07 -0.99,-0.02 -1.99,-0.02 -3.01,-0.02 -1.03,0 -1.97,0.01 -2.86,0.04 -0.89,0.01 -1.7,0.1 -2.43,0.26 -0.74,0.15 -1.4,0.38 -1.99,0.7 -0.58,0.32 -1.08,0.77 -1.47,1.34 -0.41,0.59 -0.7,1.33 -0.92,2.22 -0.21,0.89 -0.31,1.99 -0.31,3.29l0 0.43zm77.78 32.97c-3.36,0 -6.46,-0.45 -9.26,-1.31 -2.81,-0.87 -5.22,-2.17 -7.26,-3.89 -2.02,-1.71 -3.61,-3.85 -4.74,-6.42 -1.13,-2.56 -1.7,-5.54 -1.7,-8.92 0,-2.14 0.24,-4.24 0.7,-6.28 0.48,-2.06 1.18,-3.98 2.11,-5.79 0.94,-1.81 2.11,-3.47 3.49,-4.99 1.39,-1.52 3.01,-2.82 4.86,-3.92 1.87,-1.1 3.94,-1.95 6.25,-2.56 2.31,-0.6 4.85,-0.91 7.6,-0.91 3.36,0 6.44,0.43 9.25,1.3 2.81,0.88 5.24,2.17 7.26,3.89 2.04,1.72 3.61,3.86 4.74,6.43 1.13,2.56 1.7,5.54 1.7,8.92 0,2.13 -0.22,4.24 -0.7,6.28 -0.46,2.04 -1.16,3.97 -2.11,5.78 -0.94,1.81 -2.09,3.48 -3.48,4.99 -1.39,1.52 -3.01,2.82 -4.88,3.92 -1.85,1.1 -3.94,1.95 -6.23,2.56 -2.31,0.61 -4.85,0.92 -7.6,0.92zm1.13 -2.44c1.94,0 3.7,-0.23 5.29,-0.72 1.59,-0.47 3,-1.13 4.25,-1.99 1.25,-0.87 2.33,-1.9 3.25,-3.13 0.91,-1.22 1.68,-2.58 2.26,-4.08 0.6,-1.51 1.04,-3.11 1.33,-4.85 0.29,-1.74 0.45,-3.55 0.45,-5.46 0,-3.38 -0.45,-6.33 -1.35,-8.83 -0.89,-2.5 -2.1,-4.57 -3.65,-6.2 -1.54,-1.65 -3.32,-2.86 -5.38,-3.66 -2.06,-0.8 -4.23,-1.21 -6.54,-1.21 -1.94,0 -3.7,0.24 -5.29,0.71 -1.59,0.47 -3,1.14 -4.25,2 -1.25,0.86 -2.33,1.89 -3.25,3.11 -0.93,1.23 -1.68,2.58 -2.26,4.08 -0.6,1.51 -1.05,3.13 -1.34,4.86 -0.29,1.73 -0.44,3.56 -0.44,5.45 0,3.39 0.46,6.33 1.35,8.83 0.89,2.5 2.11,4.57 3.65,6.21 1.54,1.63 3.32,2.86 5.38,3.66 2.05,0.8 4.23,1.2 6.54,1.2z"/>
  <path class="fil1" d="M280.69 141.66c-5.4,0.76 -11.57,3.65 -18.5,8.66 -6.93,5.02 -14.23,11.25 -21.89,18.69 -7.66,7.45 -15.47,15.65 -23.43,24.62 -7.95,8.97 -15.58,17.82 -22.88,26.56 -7.3,8.74 -14.05,16.91 -20.25,24.51 -6.2,7.6 -11.35,13.68 -15.44,18.24 8.32,1.22 15.03,3.57 20.14,7.07 5.11,3.5 9.12,7.64 12.04,12.42 2.92,4.79 4.96,10.07 6.13,15.84 1.17,5.78 1.93,11.55 2.3,17.33 0.36,5.77 0.55,11.4 0.55,16.87 0,5.47 0.33,10.3 0.99,14.48 0.66,4.18 1.82,7.56 3.5,10.14 1.68,2.58 4.34,3.87 7.99,3.87 2.04,-0.3 3.21,0.57 3.5,2.59 0.29,2.2 -0.58,3.46 -2.63,3.8l-4.38 0.23c-7.3,0.3 -13.14,-0.76 -17.52,-3.19 -4.38,-2.43 -7.73,-5.7 -10.07,-9.8 -2.34,-4.1 -3.98,-8.89 -4.93,-14.36 -0.95,-5.47 -1.6,-11.17 -1.97,-17.1 -0.37,-5.93 -0.73,-11.82 -1.09,-17.67 -0.37,-5.85 -1.2,-11.28 -2.52,-16.3 -1.31,-5.02 -3.32,-9.39 -6.02,-13.11 -2.7,-3.72 -6.6,-6.35 -11.71,-7.87 -0.29,0 -0.51,-0.08 -0.66,-0.23 -2.92,11.4 -6.02,22.46 -9.31,33.17 -3.28,10.71 -6.93,20.4 -10.95,29.07 -4.01,8.66 -8.47,16 -13.35,22 -4.89,6 -10.33,10.11 -16.31,12.31 -2.92,0.95 -5.55,1.78 -7.88,2.47 -2.34,0.72 -4.6,0.68 -6.79,-0.11 -7.44,-2.36 -13.39,-6.38 -17.84,-12.12 -0.74,-0.96 -1.45,-1.94 -2.12,-2.95 6.03,2.22 10.76,1.74 13.98,0.72 1.36,-0.34 2.71,-0.98 4.04,-1.92 0.59,-0.4 0.89,-0.68 0.89,-0.68l0 -0c1.35,-1.09 2.68,-2.49 4,-4.21 3.87,-5.02 7.59,-11.86 11.17,-20.52 3.58,-8.66 7.04,-18.69 10.4,-30.09 3.36,-11.4 6.57,-23.33 9.63,-35.79 3.07,-12.46 6.06,-24.93 8.98,-37.39 2.92,-12.46 5.77,-24.13 8.54,-34.99 2.77,-10.87 5.51,-20.44 8.21,-28.72 1.99,-6.11 3.92,-11.04 5.8,-14.8l0.01 -0.01c2.85,-5.11 5.33,-8.41 7.38,-10.54 1.56,-1.47 3.83,-2.72 6.81,-3.76 0.77,-0.27 1.58,-0.52 2.45,-0.76 4.67,-1.29 9.49,-2.01 14.45,-2.17 4.96,-0.15 9.34,0.23 13.13,1.14 3.8,0.91 5.77,2.51 5.91,4.79 0.15,1.67 -0.22,2.97 -1.09,3.88 -0.88,0.91 -2.04,1.59 -3.5,2.05 -1.46,0.46 -3.1,0.68 -4.93,0.68 -1.83,0 -3.54,-0.08 -5.15,-0.23 -3.36,3.34 -6.42,8.97 -9.2,16.87 -2.77,7.9 -5.47,17.17 -8.1,27.81 -2.63,10.64 -5.25,22.27 -7.88,34.88 -2.63,12.61 -5.47,25.3 -8.54,38.07 2.34,-3.8 5.4,-8.4 9.2,-13.79 3.8,-5.4 7.92,-11.13 12.37,-17.21 4.45,-6.08 8.98,-12.2 13.57,-18.35 4.6,-6.16 8.98,-11.97 13.14,-17.44 4.16,-5.47 7.88,-10.26 11.16,-14.36 3.28,-4.1 5.73,-7.14 7.34,-9.12 3.65,-4.25 7.63,-8.7 11.93,-13.34 4.31,-4.63 8.9,-8.78 13.79,-12.43 4.89,-3.65 10.03,-6.61 15.43,-8.89 5.4,-2.28 11.17,-3.27 17.3,-2.96 1.9,0.3 2.7,1.44 2.41,3.42 0,0.46 -0.04,1.22 -0.11,2.28 -0.07,1.06 -0.18,2.2 -0.33,3.42 -0.15,1.21 -0.29,2.24 -0.44,3.08 -0.15,0.84 -0.44,1.26 -0.88,1.26z"/>
  <path class="fil1" d="M581.99 337.47c3.47,0 6.94,-1.5 10.41,-4.5 3.47,-3 6.74,-6.55 9.82,-10.65 3.08,-4.1 5.88,-8.4 8.4,-12.9 2.53,-4.5 4.66,-8.32 6.39,-11.48 0.47,-0.79 1.18,-1.46 2.13,-2.01 0.95,-0.55 1.81,-0.67 2.6,-0.35 0.79,0.31 1.26,0.87 1.42,1.65 0.16,0.79 0,1.58 -0.47,2.37 -2.37,3.79 -4.93,8.12 -7.69,13.02 -2.76,4.89 -5.8,9.5 -9.11,13.84 -3.31,4.34 -6.86,8.09 -10.65,11.24 -3.78,3.16 -7.81,4.97 -12.07,5.44 -9.47,0.95 -17.2,-0.08 -23.19,-3.08 -5.99,-3 -10.41,-7.18 -13.25,-12.54 -2.05,-3.87 -3.38,-8.15 -3.99,-12.85 -2.18,3.85 -4.44,7.7 -6.78,11.55 -2.92,4.81 -5.84,9.54 -8.76,14.2 -2.92,4.65 -5.8,9.11 -8.64,13.37 -2.68,3.94 -6.04,7.14 -10.06,9.59 -4.02,2.44 -8.8,3.2 -14.32,2.25 -3.31,-0.47 -6.03,-2.01 -8.16,-4.61 -2.13,-2.6 -3.75,-5.8 -4.85,-9.59 -1.11,-3.79 -1.7,-7.85 -1.78,-12.19 -0.08,-4.34 0.28,-8.56 1.07,-12.66 0.56,-3.03 1.16,-6.16 1.82,-9.36 -1.42,2.52 -2.94,5.13 -4.54,7.82 -3.24,5.44 -6.75,11.04 -10.53,16.8 -3.79,5.76 -7.73,11.08 -11.83,15.98 -3.79,4.58 -7.85,7.57 -12.19,8.99 -4.34,1.42 -8.32,1.54 -11.95,0.35 -3.63,-1.18 -6.51,-3.67 -8.64,-7.46 -2.13,-3.79 -2.88,-8.68 -2.25,-14.67 0.47,-4.1 0.99,-7.81 1.54,-11.12 0.55,-3.31 1.3,-6.59 2.25,-9.82 0.95,-3.23 2.01,-6.67 3.19,-10.29 1.18,-3.63 2.56,-7.73 4.14,-12.31 -3.31,7.42 0.91,14.75 -1.93,19.96 -2.84,5.21 -5.56,9.51 -8.17,12.9 -1.52,1.98 -12.61,7.62 -23.99,9.27 -5.12,0.75 -9.61,-0.02 -13.38,-1.26 1.78,-0.86 5.14,-2.57 11.74,-6.74 13.76,-8.67 18.19,-18.15 26.28,-40.89 4.59,-12.9 11.14,-20.79 17.09,-21.92 -0.74,-0.49 -1.51,-0.94 -2.33,-1.36 -0.27,-0.14 -0.54,-0.26 -0.81,-0.39 -0.55,0.97 -1.85,0.45 -13.83,8 -13.76,8.67 -18.19,18.15 -26.28,40.89 -4.01,11.27 -9.52,18.72 -14.82,21.18 -0.96,-0.49 -1.87,-1.04 -2.71,-1.65 -4.65,-3.39 -7.89,-7.93 -9.7,-13.61 -1.25,-3.9 -1.84,-8.15 -1.78,-12.76 -3.78,6.62 -7.64,12.53 -11.58,17.73 -4.1,5.52 -8.44,9.35 -13.02,11.48 -4.58,2.13 -9.78,2.17 -15.62,0.12 -2.84,-0.95 -4.97,-2.64 -6.39,-5.09 -1.42,-2.45 -2.33,-5.25 -2.72,-8.4 -0.4,-3.15 -0.43,-6.59 -0.12,-10.29 0.32,-3.71 0.79,-7.37 1.42,-11 0.63,-4.1 1.34,-8.12 2.13,-12.07 0.79,-3.94 1.54,-7.65 2.25,-11.12 0.71,-3.47 1.34,-6.47 1.9,-8.99 0.55,-2.53 0.98,-4.42 1.3,-5.68 -3,5.21 -5.96,11.12 -8.87,17.75 -2.92,6.63 -5.72,13.37 -8.4,20.23 -2.68,6.86 -5.24,13.61 -7.69,20.23 -2.45,6.63 -4.77,12.58 -6.98,17.87 -2.21,5.28 -4.22,9.62 -6.04,13.01 -1.81,3.39 -3.43,5.33 -4.85,5.8 -1.89,0.32 -4.85,0.47 -8.87,0.47 -4.02,0 -8.01,-0.24 -11.95,-0.71 -3.94,-0.47 -7.34,-1.22 -10.18,-2.25 -2.84,-1.02 -4.02,-2.48 -3.55,-4.38 0.63,-6.94 1.74,-15.62 3.31,-26.03 0.6,-3.94 1.27,-8 2.01,-12.2 -1.44,2.37 -2.9,4.7 -4.37,6.99 -3.47,5.36 -7.02,9.47 -10.65,12.3 -3.63,2.84 -8.05,4.34 -13.25,4.5 -5.52,0.16 -9.47,-1.38 -11.83,-4.61 -2.37,-3.23 -3.83,-7.06 -4.38,-11.48 -0.55,-4.42 -0.51,-8.88 0.12,-13.37 0.63,-4.5 1.18,-7.85 1.66,-10.06 0.63,-2.68 1.26,-5.96 1.89,-9.82 0.63,-3.86 1.42,-7.93 2.37,-12.19 0.95,-4.26 2.05,-8.44 3.31,-12.54 1.26,-4.1 2.88,-7.77 4.85,-11 1.97,-3.23 4.26,-5.8 6.86,-7.69 2.6,-1.89 5.72,-2.68 9.35,-2.37 4.26,0.32 7.34,1.66 9.23,4.02 1.89,2.37 2.96,5.48 3.2,9.35 0.24,3.86 -0.24,8.32 -1.42,13.37 -1.18,5.05 -2.6,10.49 -4.26,16.33 -1.66,5.84 -3.47,11.87 -5.44,18.1 -1.97,6.23 -3.75,12.51 -5.32,18.81 -0.32,1.74 0.12,2.72 1.3,2.96 1.18,0.24 2.17,-0.04 2.96,-0.83 1.58,-2.05 3.12,-4.18 4.62,-6.39 1.5,-2.21 3.04,-4.62 4.61,-7.22 1.58,-2.6 3.27,-5.56 5.09,-8.87 0.85,-1.56 1.77,-3.26 2.75,-5.1l1.04 -4.96c2.6,-12.23 5.68,-24.93 9.23,-38.1 3.55,-13.17 7.57,-25.91 12.07,-38.22 4.5,-12.31 9.55,-23.78 15.15,-34.43 5.6,-10.65 11.67,-19.6 18.22,-26.86 6.55,-7.26 13.65,-12.34 21.3,-15.26 7.65,-2.92 15.81,-2.8 24.49,0.36 6.63,2.37 11.2,5.72 13.73,10.06 2.52,4.34 3.51,9.31 2.96,14.91 -0.55,5.6 -2.37,11.72 -5.44,18.34 -3.08,6.63 -6.9,13.41 -11.48,20.35 -4.58,6.94 -9.62,13.88 -15.15,20.82 -5.52,6.94 -11.01,13.53 -16.45,19.76 -5.44,6.23 -10.57,11.95 -15.38,17.16 -4.81,5.21 -8.79,9.63 -11.95,13.25 -2.68,8.99 -5.09,17.59 -7.22,25.8 -2.13,8.2 -3.94,15.66 -5.44,22.36 -1.5,6.71 -2.6,12.5 -3.31,17.39 -0.71,4.89 -0.91,8.44 -0.59,10.65 1.89,-3.47 4.1,-8.68 6.63,-15.62 2.53,-6.94 5.33,-14.59 8.4,-22.95 3.08,-8.36 6.43,-16.84 10.06,-25.44 3.63,-8.6 7.57,-16.37 11.83,-23.31 4.26,-6.94 8.8,-12.42 13.61,-16.45 4.81,-4.03 9.9,-5.64 15.26,-4.85 3.79,0.63 6.51,2.45 8.17,5.44 1.66,3 2.56,6.71 2.72,11.12 0.16,4.42 -0.28,9.39 -1.3,14.91 -1.03,5.52 -2.33,11.05 -3.91,16.57 -1.58,5.52 -3.23,10.89 -4.97,16.09 -1.73,5.21 -3.23,9.7 -4.5,13.49 -0.32,1.89 0.08,3.27 1.18,4.14 1.1,0.87 2.05,0.83 2.84,-0.12 3.94,-4.42 7.69,-9.78 11.24,-16.09 3.06,-5.43 5.91,-10.69 8.55,-15.77 1.04,-4.01 2.41,-7.98 4.11,-11.92 3,-6.94 6.94,-13.33 11.83,-19.17 4.89,-5.84 10.45,-10.29 16.68,-13.37 6.23,-3.08 12.98,-4.34 20.24,-3.79 7.26,0.55 14.75,3.75 22.48,9.59 1.83,-4.59 1.74,-5.91 1.13,-10.8 1.11,-0.47 3.02,-0.46 6.49,0.65 3.47,1.1 7.1,2.56 10.89,4.38 3.78,1.81 7.18,3.63 10.18,5.44 3,1.81 4.66,3.21 4.5,4.14 -1.27,7.3 -7.6,22.33 -10.34,30.03 -2.92,8.2 -5.84,16.53 -8.76,24.97 -2.92,8.44 -5.32,15.86 -7.22,22.24 -1.89,6.39 -2.96,11.12 -3.2,14.2 -0.24,3.08 0.83,3.27 3.2,0.59 6.78,-9.62 12.98,-19.01 18.58,-28.16 5.56,-9.09 11.16,-18.79 16.8,-29.12 1.75,-7.35 3.6,-14.72 5.57,-22.12 2.37,-8.91 4.85,-17.71 7.46,-26.39l1.93 -6.4 0 -0.01 0.02 -0.06 1.27 -4.06c-1.9,-0.01 -3.78,-0.04 -5.65,-0.07 -7.75,-0.14 -14.87,-0.7 -21.36,-1.67 -6.49,-0.97 -12.17,-2.46 -17.02,-4.46 -4.86,-2 -8.53,-4.69 -11.02,-8.07 -1.13,-1.67 -2.14,-3.17 -2.99,-4.52 -0.88,-1.34 -1.24,-2.77 -1.07,-4.3 0.32,-5.11 2.02,-9.59 5.12,-13.42 0.51,-0.64 1.06,-1.26 1.62,-1.87 -0.47,4.2 0.65,7.09 1.88,8.94 0.46,0.8 1.12,1.53 1.97,2.2 0.37,0.3 0.6,0.44 0.6,0.44l0 0c0.96,0.65 2.13,1.24 3.5,1.76 4.02,1.54 9.24,2.65 15.66,3.34 6.42,0.7 13.74,1.08 21.95,1.14 4.33,0.03 8.75,0.02 13.26,-0.05l0.92 -3.03 0.08 -0.27 0.01 -0.02c1.4,-4.51 2.61,-8.01 3.61,-10.52 0.16,-0.95 1.18,-1.7 3.08,-2.25 1.89,-0.55 4.18,-0.91 6.86,-1.07 2.68,-0.16 5.56,-0.16 8.64,0 3.08,0.16 5.88,0.39 8.4,0.71 2.53,0.31 4.61,0.63 6.27,0.95 1.66,0.32 2.49,0.63 2.49,0.95 -0.32,1.73 -0.91,3.9 -1.78,6.51 -0.34,1.02 -0.69,2.1 -1.04,3.24l-0.04 0.11 -0.04 0.13 -0.04 0.14 -0.04 0.14 -0.95 3.02 2.58 -0.12c8.86,-0.4 17.17,-0.71 24.93,-0.91 7.76,-0.21 14.65,-0.21 20.67,0.01 4.44,0.16 8.07,0.49 10.91,0.99l0.01 0c3.91,0.88 6.55,1.84 8.32,2.76 1.25,0.71 2.48,1.92 3.67,3.61 0.31,0.44 0.62,0.9 0.92,1.4 1.66,2.71 2.95,5.62 3.89,8.72 0.94,3.1 1.42,5.93 1.45,8.48 0.03,2.56 -0.71,4.08 -2.21,4.59 -1.1,0.39 -2.03,0.4 -2.79,0.01 -0.76,-0.39 -1.42,-1 -1.97,-1.84 -0.55,-0.84 -0.98,-1.83 -1.29,-2.98 -0.31,-1.15 -0.55,-2.24 -0.72,-3.28 -2.81,-1.51 -7.1,-2.43 -12.88,-2.76 -5.77,-0.33 -12.45,-0.36 -20.04,-0.1 -7.58,0.26 -15.83,0.69 -24.75,1.31l-3.31 0.22 -0.01 0 -0.03 0c-5,0.26 -9.66,0.49 -13.95,0.68l-1.24 3.91c-1.84,5.7 -3.76,11.62 -5.76,17.75 -3.94,12.07 -7.69,23.9 -11.24,35.5 -3.55,11.6 -6.63,22.4 -9.23,32.42 -2.6,10.02 -4.3,18.11 -5.09,24.26 -0.16,0.95 0.28,1.85 1.3,2.72 1.03,0.87 2.17,0.67 3.43,-0.59 3.31,-4.42 6.59,-9.11 9.82,-14.08 3.23,-4.97 6.35,-9.98 9.35,-15.03 3,-5.05 5.84,-9.94 8.52,-14.67 1.19,-2.11 2.32,-4.12 3.39,-6.04 0.4,-5.01 1.4,-10.02 3,-15.02 2.21,-6.94 5.4,-13.49 9.58,-19.64 4.18,-6.15 9.11,-11.12 14.79,-14.91 5.68,-3.79 11.95,-6.04 18.81,-6.75 6.86,-0.71 14.08,0.99 21.65,5.09 3.47,1.89 5.4,4.14 5.8,6.74 0.4,2.6 -0.24,5.4 -1.89,8.4 -1.65,3 -4.02,6.11 -7.1,9.35 -3.08,3.24 -6.39,6.27 -9.94,9.11 -3.55,2.84 -7.06,5.48 -10.53,7.93 -3.47,2.45 -6.39,4.46 -8.76,6.03 -1.89,4.73 -3.35,9.39 -4.38,13.96 -1.03,4.58 -1.46,8.64 -1.3,12.19 0.16,3.55 0.99,6.39 2.48,8.52 1.5,2.13 3.91,3.2 7.22,3.2zm-330.61 -138.21c4.42,0.95 7.61,2.64 9.59,5.09 1.97,2.45 3.08,5.24 3.31,8.4 0.24,3.16 -0.28,6.39 -1.54,9.7 -1.26,3.31 -2.96,6.31 -5.09,8.99 -2.13,2.68 -4.46,4.77 -6.98,6.27 -2.52,1.5 -4.89,1.93 -7.1,1.3 -2.52,-0.63 -4.61,-2.17 -6.27,-4.61 -1.66,-2.45 -2.84,-5.29 -3.55,-8.52 -0.71,-3.23 -0.91,-6.59 -0.59,-10.06 0.32,-3.47 1.18,-6.59 2.6,-9.35 1.42,-2.76 3.43,-4.85 6.03,-6.27 2.6,-1.42 5.8,-1.74 9.59,-0.95zm115.49 -16.57c2.21,-5.36 3.31,-10.45 3.31,-15.26 0,-4.81 -0.95,-8.4 -2.84,-10.77 -1.89,-2.37 -4.62,-2.92 -8.17,-1.66 -3.55,1.26 -7.77,5.28 -12.66,12.07 -3.63,5.05 -7.34,11.28 -11.12,18.69 -3.79,7.42 -7.49,15.58 -11.12,24.5 -3.63,8.91 -7.22,18.3 -10.77,28.16 -3.55,9.86 -6.82,19.76 -9.82,29.7 5.52,-6.31 11.44,-13.21 17.75,-20.71 6.31,-7.49 12.42,-15.07 18.34,-22.72 5.92,-7.65 11.28,-15.07 16.09,-22.25 4.81,-7.18 8.48,-13.76 11,-19.76zm241.15 75.97c-1.89,0.16 -3.94,1.1 -6.15,2.84 -2.21,1.73 -4.46,4.06 -6.75,6.98 -2.29,2.92 -4.58,6.27 -6.86,10.06 -2.29,3.79 -4.38,7.73 -6.27,11.83 3.47,-2.37 7.18,-5.13 11.12,-8.28 3.94,-3.15 7.38,-6.23 10.3,-9.23 2.92,-3 4.97,-5.76 6.15,-8.28 1.18,-2.52 0.67,-4.5 -1.54,-5.92z"/>
  <path class="fil2" d="M662.67 81.94c0,0 -15.89,15.61 -22.31,19.95 0,0 0.94,2.72 -4.89,7.51 -5.83,4.79 -16.93,15.75 -53.67,35.36 0,0 -3.56,-0.8 -3.86,-0.6 -0.3,0.19 -15.13,8.1 -19.02,17.14 -3.89,9.04 -2.7,9.52 -5.59,12.8 -2.89,3.28 -1.95,7.02 -1.95,7.02 0,0 4.5,-8.03 12.27,-6.44 7.77,1.59 20.33,1.26 21.46,-0.91 0,0 3.15,-6.29 0.07,-13.47 0,0 5,-0.26 5.34,14.62 0,0 8.38,-1.99 14.34,-6.68 0,0 1.69,-5.06 -1.4,-8.67 -3.09,-3.61 -4.54,-8.07 -4.54,-8.07 0,0 5.66,3.49 7.53,8.28 1.87,4.8 0.74,8.08 0.74,8.08 0,0 5.11,-1.5 10.03,-4.98 4.91,-3.47 7,-5.24 4.99,-8.98 -2.01,-3.75 -7.72,-10.3 -10.73,-12.14 0,0 11.03,-0.67 14.3,12.8 0,0 6.4,-1.38 7.44,-8.52 1.04,-7.14 -4.84,-16.32 -13.43,-15.56 0,0 1.98,-2.66 5.94,-1.44 3.97,1.22 9.4,7.42 9.87,8.78 0,0 3.63,1.31 5.97,-1.3 2.34,-2.61 5.08,-4.75 6.01,-10.01 0,0 -0.16,-5.82 -16.66,-2.77 0,0 2.42,-5.29 11.04,-3.55 8.63,1.75 11.17,-3.06 11.17,-3.06l1.19 -4.8c0,0 -11.14,-0.69 -17.28,2.67 0,0 -0.84,-5.86 17.21,-6.67 0,0 6.54,-12.58 8.42,-26.41zm-125.91 79.27c0,0 -1.82,-5.2 -1.39,-8.44 0.43,-3.24 -6.38,-10.68 -7.62,-16.36 -1.24,-5.68 -12.31,-19.81 -23.19,-23.76 -10.89,-3.95 -12.48,-4.16 -15.03,-6.26 -2.55,-2.1 -20.38,-3.03 -27.59,-9.83 0,0 0.52,15.33 9.61,29.98 9.09,14.66 16.67,26.05 27.13,31.8 10.46,5.75 28.83,7.46 38.28,15.61 0,0 -0.68,-9.92 -6.35,-14.06 -5.66,-4.14 -10.39,-4.21 -10.39,-4.21 0,0 0.44,-1.56 4.47,-1.17 0,0 -0.89,-3.09 -2.34,-4.07 0,0 -4.98,-2 -8.88,-1.92 -3.91,0.08 -7.53,-2.3 -7.53,-2.3 0,0 0.09,-1.75 13.91,1.43 0,0 -7.73,-9.56 -9.78,-10.53 0,0 -13.99,-1.9 -16.65,-0.73 0,0 4.32,-2.16 13.13,-1.41 0,0 -4.89,-6.82 -11.77,-8.8 -6.88,-1.98 -13.95,-3.24 -14.73,-4.69 0,0 4.11,0.13 11.83,2.08 0,0 -16.93,-14.31 -18.23,-17.49 0,0 1.31,-1.5 3.77,0.96 2.45,2.46 8.43,2.18 8.43,2.18 0,0 2.48,5.06 6,9.98 0,0 3.08,1.94 4.61,2.7 0,0 0.63,-4.09 -1.91,-7.67 0,0 5.41,4.98 3.86,8.3l9.98 8.7c0,0 1.48,-4.49 -0.33,-8.35 0,0 4.2,3.67 2.15,9.66 0,0 7.66,7.28 10.52,11.6 0,0 1.96,-3.91 -0.51,-8.04 0,0 4.7,4.1 2.27,9.48 0,0 2.9,4 5.46,6.01 2.56,2.01 1.74,-2.64 1.74,-2.64 0,0 1.19,3.59 0.59,4.62 -0.6,1.03 0.07,4.37 6.45,7.63zm10.95 19.52c0,0 -1.55,1.21 -2.18,3 -0.63,1.79 -0.07,5.05 -4.66,14.5 -4.59,9.46 -5.45,11.12 -7.83,19.24l-5.62 3.86c0,0 2.79,-12.48 8.74,-19.99 5.96,-7.51 6.58,-18.84 5.12,-21.49 -1.46,-2.65 -3.22,-10.03 -2.75,-12.84 0.46,-2.82 -0.04,0.27 -0.04,0.27 0,0 0.96,2.54 1.61,1.83 0,0 -0.51,2.76 4.04,11.85 0,0 1.03,1.34 3.56,-0.25zm117.96 -105.31c0,0 -11.85,13.43 -21.78,19.81 0,0 -7.49,-0.88 -8.4,-3.08 0,0 2.88,4.14 3.06,7.53 0,0 -1.83,5.41 -7.96,7.9 0,0 0.12,-8.24 -6.26,-9.13 0,0 4.65,7.62 3.19,10.91 -1.46,3.29 -4.03,7.67 -11.6,8.43 0,0 -0.01,-10.06 -9.59,-12.31 0,0 6.04,5.9 6.43,9.53 0.4,3.63 1.22,4.47 -3.27,7.87 -4.48,3.39 -7.58,3.68 -7.58,3.68 0,0 2.79,-13.31 -6.8,-15.19 0,0 6.78,5.86 3.61,13.37 -3.18,7.51 -6.32,8.81 -6.32,8.81 0,0 -13.84,-13.85 -22.98,-5.04 0,0 13.85,-0.95 17.59,6.51 0,0 -6.95,6.22 -12.61,7.69 0,0 -6.24,-6.11 -14.39,-3.39 0,0 10.09,2.92 9.81,5.75 -0.28,2.84 -3.01,2.43 -6.39,6.53 -3.37,4.1 -6.68,-3.16 -10.9,-2.79 0,0 5.68,4.88 5.09,8.63 -0.59,3.75 -8.67,12.41 -9.78,19.37 0,0 -3.75,-11.21 0.31,-27.18 4.07,-15.97 44.92,-43.53 49.74,-46.97 4.82,-3.44 4.42,-3.96 8.8,-3.91 4.38,0.05 11.85,-4.36 13.72,-5.88 1.87,-1.51 3.59,-2.21 10.04,-1.22 0,0 8.67,-5.9 18.8,-7.43 0,0 0.22,1.47 16.43,-8.77z"/>
  <path class="fil2" d="M512.64 207.62l3.71 -8.96c9.25,-5.27 8.92,-6.96 11.68,-11.57l5.02 -1.52 10.28 -1.05 7.83 9 -1.83 11.63c0,0 -33.34,16.29 -36.7,2.47z"/>
 </g>
</svg>
