<?xml version="1.0" encoding="UTF-8"?>
<!DOCTYPE svg PUBLIC "-//W3C//DTD SVG 1.1//EN" "http://www.w3.org/Graphics/SVG/1.1/DTD/svg11.dtd">
<!-- Creator: CorelDRAW 2020 (64-Bit) -->
<svg xmlns="http://www.w3.org/2000/svg" xml:space="preserve" width="29.8002mm" height="12.9667mm" version="1.1" style="shape-rendering:geometricPrecision; text-rendering:geometricPrecision; image-rendering:optimizeQuality; fill-rule:evenodd; clip-rule:evenodd"
viewBox="0 0 2396.84 1042.91"
 xmlns:xlink="http://www.w3.org/1999/xlink"
 xmlns:xodm="http://www.corel.com/coreldraw/odm/2003">
 <defs>
  <style type="text/css">
   <![CDATA[
    .fil1 {fill:#FEFEFE}
    .fil0 {fill:#FEFEFE;fill-rule:nonzero}
   ]]>
  </style>
 </defs>
 <g id="Capa_x0020_1">
  <metadata id="CorelCorpID_0Corel-Layer"/>
  <path class="fil0" d="M919.74 66.99c-23.28,3.28 -49.87,15.73 -79.78,37.35 -29.89,21.64 -61.36,48.51 -94.4,80.62 -33.05,32.12 -66.72,67.51 -101.03,106.18 -34.3,38.67 -67.19,76.84 -98.66,114.52 -31.47,37.69 -60.58,72.91 -87.33,105.69 -26.75,32.77 -48.94,58.98 -66.56,78.64 35.87,5.24 64.83,15.4 86.86,30.48 22.03,15.07 39.35,32.94 51.93,53.57 12.58,20.65 21.39,43.42 26.43,68.33 5.03,24.91 8.34,49.81 9.92,74.72 1.57,24.9 2.36,49.15 2.36,72.74 0,23.59 1.42,44.4 4.25,62.43 2.83,18.02 7.86,32.6 15.1,43.75 7.24,11.14 18.72,16.71 34.46,16.71 8.82,-1.31 13.85,2.46 15.1,11.15 1.26,9.51 -2.52,14.91 -11.32,16.38l-18.89 0.99c-31.47,1.31 -56.65,-3.27 -75.53,-13.76 -18.89,-10.49 -33.35,-24.58 -43.42,-42.27 -10.07,-17.69 -17.16,-38.33 -21.25,-61.93 -4.09,-23.59 -6.92,-48.18 -8.49,-73.73 -1.58,-25.56 -3.14,-50.96 -4.72,-76.19 -1.58,-25.23 -5.19,-48.66 -10.86,-70.29 -5.66,-21.63 -14.32,-40.47 -25.96,-56.53 -11.65,-16.06 -28.48,-27.36 -50.51,-33.92 -1.26,0 -2.2,-0.33 -2.83,-0.99 -12.59,49.16 -25.96,96.84 -40.13,143.05 -14.16,46.2 -29.9,87.98 -47.2,125.34 -17.31,37.35 -36.51,68.98 -57.59,94.87 -21.09,25.88 -44.53,43.59 -70.34,53.08 -12.59,4.09 -23.91,7.7 -33.98,10.65 -10.07,3.11 -19.83,2.95 -29.27,-0.49 -32.1,-10.16 -57.75,-27.52 -76.95,-52.27 -3.2,-4.13 -6.25,-8.36 -9.14,-12.72 26,9.56 46.4,7.51 60.3,3.09 5.86,-1.46 11.67,-4.23 17.42,-8.29 2.54,-1.72 3.85,-2.92 3.85,-2.92l0 -0.01c5.81,-4.71 11.56,-10.75 17.25,-18.14 16.68,-21.64 32.74,-51.12 48.15,-88.48 15.43,-37.35 30.37,-80.61 44.85,-129.77 14.47,-49.15 28.32,-100.6 41.53,-154.35 13.22,-53.74 26.12,-107.49 38.71,-161.22 12.6,-53.74 24.86,-104.04 36.82,-150.9 11.96,-46.86 23.76,-88.15 35.41,-123.86 8.59,-26.35 16.92,-47.61 25,-63.81l0.02 -0.03c12.3,-22.04 22.98,-36.28 31.83,-45.47 6.71,-6.33 16.5,-11.73 29.37,-16.21 3.31,-1.15 6.83,-2.24 10.55,-3.27 20.14,-5.57 40.91,-8.69 62.32,-9.34 21.39,-0.66 40.28,0.98 56.64,4.91 16.37,3.93 24.86,10.81 25.5,20.64 0.63,7.21 -0.94,12.79 -4.72,16.72 -3.78,3.93 -8.82,6.88 -15.1,8.85 -6.3,1.96 -13.38,2.95 -21.24,2.95 -7.87,0 -15.27,-0.34 -22.19,-0.99 -14.48,14.42 -27.69,38.66 -39.65,72.75 -11.96,34.08 -23.6,74.06 -34.93,119.93 -11.33,45.88 -22.66,96.02 -33.99,150.42 -11.33,54.39 -23.61,109.11 -36.82,164.17 10.07,-16.38 23.28,-36.21 39.65,-59.48 16.37,-23.27 34.14,-48 53.34,-74.22 19.2,-26.21 38.71,-52.59 58.54,-79.14 19.83,-26.55 38.71,-51.61 56.65,-75.21 17.94,-23.59 33.99,-44.24 48.15,-61.93 14.16,-17.69 24.71,-30.8 31.63,-39.32 15.74,-18.35 32.89,-37.52 51.45,-57.51 18.57,-19.99 38.4,-37.85 59.49,-53.58 21.08,-15.72 43.27,-28.5 66.56,-38.34 23.28,-9.82 48.15,-14.08 74.59,-12.77 8.18,1.3 11.64,6.23 10.38,14.74 0,1.96 -0.15,5.24 -0.47,9.83 -0.31,4.58 -0.79,9.51 -1.42,14.75 -0.63,5.24 -1.25,9.67 -1.89,13.26 -0.63,3.61 -1.89,5.41 -3.78,5.41z"/>
  <path class="fil0" d="M2219.01 911.36c14.97,0 29.94,-6.47 44.9,-19.4 14.97,-12.93 29.08,-28.23 42.35,-45.92 13.26,-17.69 25.34,-36.23 36.23,-55.63 10.89,-19.38 20.08,-35.88 27.56,-49.49 2.03,-3.4 5.1,-6.3 9.19,-8.67 4.08,-2.39 7.82,-2.9 11.23,-1.53 3.39,1.35 5.44,3.74 6.12,7.13 0.68,3.4 0,6.81 -2.04,10.21 -10.21,16.33 -21.27,35.04 -33.17,56.13 -11.9,21.09 -25,40.99 -39.29,59.7 -14.28,18.71 -29.59,34.87 -45.93,48.48 -16.32,13.61 -33.67,21.43 -52.05,23.47 -40.82,4.09 -74.15,-0.34 -100,-13.26 -25.85,-12.93 -44.9,-30.96 -57.15,-54.08 -8.83,-16.7 -14.57,-35.16 -17.21,-55.4 -9.42,16.58 -19.15,33.19 -29.22,49.79 -12.58,20.74 -25.17,41.15 -37.75,61.22 -12.59,20.07 -25.01,39.29 -37.25,57.66 -11.57,17.01 -26.03,30.79 -43.38,41.33 -17.35,10.54 -37.93,13.78 -61.75,9.69 -14.28,-2.04 -26.02,-8.68 -35.2,-19.9 -9.19,-11.22 -16.15,-25.01 -20.91,-41.33 -4.77,-16.33 -7.32,-33.85 -7.66,-52.56 -0.35,-18.71 1.19,-36.9 4.59,-54.59 2.4,-13.09 5.02,-26.54 7.83,-40.35 -6.14,10.87 -12.67,22.1 -19.57,33.72 -13.95,23.47 -29.09,47.62 -45.42,72.45 -16.33,24.84 -33.34,47.8 -51.02,68.89 -16.33,19.73 -33.85,32.65 -52.55,38.78 -18.71,6.12 -35.9,6.63 -51.54,1.53 -15.64,-5.11 -28.06,-15.82 -37.25,-32.15 -9.19,-16.33 -12.42,-37.42 -9.7,-63.27 2.04,-17.69 4.25,-33.67 6.64,-47.96 2.39,-14.29 5.61,-28.41 9.7,-42.35 4.08,-13.95 8.68,-28.75 13.77,-44.39 5.11,-15.64 11.06,-33.34 17.86,-53.07 -14.29,31.98 3.93,63.6 -8.31,86.05 -12.25,22.45 -23.99,41 -35.21,55.62 -6.56,8.55 -54.38,32.84 -103.43,39.98 -22.07,3.22 -41.46,-0.07 -57.68,-5.45 7.66,-3.71 22.16,-11.08 50.63,-29.04 59.32,-37.38 78.44,-78.26 113.31,-176.32 19.78,-55.63 48.02,-89.64 73.71,-94.54 -3.19,-2.1 -6.53,-4.05 -10.05,-5.86 -1.15,-0.59 -2.31,-1.14 -3.47,-1.69 -2.36,4.19 -7.99,1.93 -59.66,34.51 -59.32,37.4 -78.43,78.27 -113.31,176.34 -17.29,48.62 -41.06,80.71 -63.92,91.31 -4.15,-2.1 -8.04,-4.46 -11.7,-7.13 -20.07,-14.62 -34.01,-34.18 -41.84,-58.67 -5.37,-16.83 -7.93,-35.16 -7.7,-55.02 -16.31,28.53 -32.96,54.02 -49.96,76.45 -17.69,23.82 -36.4,40.31 -56.13,49.5 -19.73,9.19 -42.19,9.35 -67.35,0.51 -12.24,-4.09 -21.43,-11.4 -27.56,-21.94 -6.12,-10.55 -10.03,-22.63 -11.73,-36.23 -1.71,-13.6 -1.87,-28.4 -0.51,-44.39 1.36,-15.99 3.4,-31.8 6.12,-47.45 2.73,-17.69 5.78,-35.04 9.19,-52.04 3.4,-17.01 6.64,-33 9.69,-47.97 3.06,-14.97 5.78,-27.89 8.17,-38.78 2.37,-10.89 4.25,-19.05 5.61,-24.5 -12.93,22.46 -25.68,47.97 -38.26,76.54 -12.6,28.58 -24.67,57.66 -36.23,87.25 -11.57,29.6 -22.62,58.68 -33.17,87.25 -10.54,28.58 -20.58,54.27 -30.11,77.06 -9.52,22.79 -18.19,41.49 -26.03,56.12 -7.82,14.64 -14.79,22.97 -20.91,25.01 -8.16,1.36 -20.93,2.03 -38.27,2.03 -17.35,0 -34.53,-1.02 -51.54,-3.06 -17,-2.04 -31.63,-5.28 -43.88,-9.7 -12.24,-4.42 -17.35,-10.71 -15.31,-18.88 2.72,-29.94 7.49,-67.35 14.29,-112.26 2.57,-16.98 5.46,-34.5 8.65,-52.59 -6.21,10.23 -12.5,20.28 -18.86,30.15 -14.97,23.12 -30.27,40.82 -45.93,53.06 -15.64,12.25 -34.7,18.72 -57.15,19.39 -23.81,0.68 -40.82,-5.95 -51.02,-19.9 -10.21,-13.95 -16.5,-30.45 -18.89,-49.49 -2.37,-19.05 -2.2,-38.28 0.51,-57.66 2.73,-19.4 5.1,-33.85 7.14,-43.38 2.72,-11.57 5.45,-25.68 8.16,-42.35 2.72,-16.67 6.13,-34.19 10.21,-52.56 4.09,-18.37 8.85,-36.4 14.28,-54.09 5.45,-17.69 12.42,-33.51 20.93,-47.45 8.49,-13.95 18.37,-25 29.59,-33.16 11.23,-8.16 24.66,-11.57 40.3,-10.21 18.38,1.36 31.64,7.14 39.8,17.35 8.16,10.21 12.76,23.65 13.78,40.31 1.02,16.67 -1.02,35.88 -6.12,57.66 -5.11,21.77 -11.22,45.23 -18.37,70.41 -7.14,25.17 -14.97,51.19 -23.48,78.07 -8.49,26.88 -16.15,53.93 -22.95,81.13 -1.36,7.49 0.51,11.74 5.61,12.76 5.11,1.02 9.35,-0.17 12.75,-3.58 6.81,-8.84 13.44,-18.02 19.91,-27.55 6.46,-9.53 13.09,-19.91 19.9,-31.13 6.8,-11.23 14.12,-23.98 21.94,-38.27 3.68,-6.73 7.63,-14.06 11.85,-21.99l4.48 -21.39c11.22,-52.72 24.49,-107.49 39.8,-164.29 15.31,-56.81 32.66,-111.74 52.05,-164.81 19.39,-53.07 41.16,-102.56 65.32,-148.49 24.15,-45.93 50.34,-84.53 78.57,-115.83 28.24,-31.3 58.85,-53.23 91.85,-65.82 32.99,-12.58 68.2,-12.07 105.61,1.54 28.58,10.21 48.31,24.66 59.2,43.37 10.88,18.72 15.13,40.14 12.76,64.3 -2.38,24.15 -10.21,50.52 -23.48,79.09 -13.26,28.57 -29.76,57.83 -49.49,87.77 -19.73,29.94 -41.5,59.86 -65.31,89.8 -23.82,29.94 -47.46,58.34 -70.92,85.22 -23.48,26.87 -45.59,51.53 -66.34,73.98 -20.75,22.46 -37.92,41.51 -51.54,57.15 -11.56,38.78 -21.93,75.85 -31.12,111.23 -9.19,35.37 -17.01,67.52 -23.48,96.44 -6.46,28.91 -11.22,53.92 -14.28,75.01 -3.06,21.1 -3.92,36.39 -2.55,45.93 8.16,-14.97 17.69,-37.42 28.57,-67.36 10.89,-29.94 22.97,-62.93 36.23,-98.98 13.27,-36.06 27.73,-72.63 43.38,-109.71 15.65,-37.08 32.66,-70.59 51.02,-100.52 18.37,-29.93 37.93,-53.57 58.68,-70.92 20.75,-17.36 42.69,-24.32 65.82,-20.93 16.34,2.73 28.07,10.55 35.21,23.48 7.14,12.93 11.06,28.91 11.73,47.96 0.68,19.05 -1.19,40.48 -5.61,64.29 -4.42,23.82 -10.04,47.63 -16.84,71.45 -6.8,23.81 -13.95,46.94 -21.43,69.39 -7.48,22.46 -13.95,41.84 -19.38,58.18 -1.37,8.16 0.33,14.11 5.1,17.85 4.76,3.75 8.85,3.58 12.24,-0.51 17.01,-19.05 33.18,-42.18 48.48,-69.4 13.18,-23.42 25.46,-46.08 36.88,-67.99 4.49,-17.3 10.39,-34.43 17.73,-51.4 12.93,-29.94 29.93,-57.5 51.02,-82.67 21.08,-25.17 45.07,-44.39 71.94,-57.65 26.88,-13.26 55.96,-18.71 87.26,-16.33 31.3,2.38 63.6,16.16 96.95,41.33 7.89,-19.78 7.51,-25.5 4.87,-46.55 4.77,-2.04 13.03,-1.97 28,2.79 14.97,4.76 30.62,11.05 46.95,18.88 16.32,7.82 30.95,15.65 43.88,23.47 12.93,7.83 20.08,13.84 19.38,17.86 -5.47,31.5 -32.78,96.27 -44.6,129.49 -12.6,35.37 -25.17,71.26 -37.77,107.66 -12.58,36.39 -22.95,68.37 -31.12,95.92 -8.16,27.56 -12.76,47.97 -13.78,61.23 -1.02,13.27 3.57,14.12 13.78,2.56 29.25,-41.5 55.96,-81.98 80.11,-121.44 23.98,-39.18 48.12,-81.03 72.44,-125.57 7.54,-31.67 15.54,-63.47 24.01,-95.37 10.2,-38.44 20.92,-76.37 32.15,-113.78l8.31 -27.58 0.02 -0.03 0.07 -0.27 5.48 -17.5c-8.17,-0.06 -16.29,-0.17 -24.35,-0.32 -33.4,-0.61 -64.11,-3.02 -92.1,-7.21 -28,-4.17 -52.47,-10.59 -73.41,-19.22 -20.94,-8.64 -36.77,-20.22 -47.5,-34.78 -4.87,-7.2 -9.21,-13.69 -12.89,-19.5 -3.78,-5.79 -5.33,-11.96 -4.61,-18.54 1.4,-22.05 8.72,-41.34 22.09,-57.89 2.22,-2.77 4.55,-5.44 6.99,-8.04 -2.03,18.1 2.8,30.59 8.11,38.55 1.97,3.43 4.81,6.6 8.51,9.49 1.58,1.29 2.61,1.9 2.61,1.9l0.01 0c4.15,2.81 9.17,5.34 15.09,7.61 17.33,6.63 39.84,11.43 67.52,14.42 27.68,3.02 59.24,4.65 94.67,4.93 18.66,0.14 37.73,0.07 57.19,-0.23l3.98 -13.05 0.36 -1.15 0.03 -0.1c6.06,-19.43 11.24,-34.55 15.56,-45.38 0.69,-4.09 5.11,-7.32 13.27,-9.7 8.16,-2.38 18.03,-3.92 29.59,-4.59 11.57,-0.68 23.99,-0.68 37.26,0 13.26,0.68 25.34,1.7 36.23,3.06 10.89,1.35 19.9,2.72 27.04,4.08 7.15,1.36 10.72,2.73 10.72,4.09 -1.37,7.48 -3.92,16.83 -7.66,28.06 -1.47,4.42 -2.97,9.07 -4.5,13.96l-0.15 0.48 -0.18 0.58 -0.18 0.59 -0.18 0.59 -4.12 13.03 11.12 -0.51c38.2,-1.73 74.04,-3.04 107.51,-3.92 33.48,-0.9 63.19,-0.88 89.12,0.02 19.13,0.68 34.82,2.11 47.04,4.29l0.02 0c16.87,3.79 28.24,7.95 35.89,11.89 5.39,3.08 10.67,8.28 15.84,15.59 1.34,1.88 2.67,3.9 3.98,6.06 7.14,11.69 12.74,24.23 16.79,37.59 4.05,13.36 6.14,25.56 6.27,36.58 0.11,11.02 -3.06,17.61 -9.55,19.78 -4.74,1.69 -8.74,1.71 -12.02,0.03 -3.27,-1.67 -6.1,-4.32 -8.49,-7.93 -2.39,-3.61 -4.24,-7.9 -5.57,-12.86 -1.34,-4.95 -2.36,-9.67 -3.09,-14.16 -12.12,-6.53 -30.64,-10.5 -55.53,-11.9 -24.89,-1.42 -53.7,-1.56 -86.4,-0.44 -32.7,1.1 -68.28,2.99 -106.71,5.64l-14.27 0.95 -0.02 0 -0.13 0.01c-21.56,1.14 -41.65,2.11 -60.17,2.94l-5.34 16.87c-7.94,24.58 -16.21,50.1 -24.85,76.52 -17.01,52.05 -33.17,103.07 -48.48,153.08 -15.31,50 -28.58,96.6 -39.8,139.8 -11.23,43.2 -18.54,78.07 -21.95,104.6 -0.68,4.09 1.19,7.99 5.61,11.73 4.43,3.74 9.35,2.9 14.8,-2.55 14.28,-19.05 28.41,-39.29 42.35,-60.72 13.95,-21.43 27.39,-43.02 40.31,-64.79 12.93,-21.77 25.17,-42.86 36.73,-63.27 5.15,-9.09 10.02,-17.77 14.64,-26.04 1.74,-21.6 6.04,-43.19 12.92,-64.78 9.52,-29.94 23.3,-58.17 41.33,-84.7 18.03,-26.53 39.29,-47.97 63.79,-64.29 24.48,-16.34 51.53,-26.03 81.13,-29.09 29.59,-3.06 60.72,4.25 93.37,21.94 14.97,8.16 23.3,17.86 25,29.08 1.71,11.23 -1.01,23.3 -8.16,36.23 -7.13,12.93 -17.34,26.37 -30.61,40.31 -13.27,13.95 -27.55,27.05 -42.86,39.3 -15.31,12.23 -30.44,23.63 -45.41,34.18 -14.97,10.54 -27.56,19.21 -37.76,26.02 -8.16,20.41 -14.45,40.48 -18.88,60.21 -4.42,19.73 -6.29,37.25 -5.61,52.56 0.68,15.3 4.25,27.55 10.71,36.73 6.47,9.19 16.84,13.79 31.13,13.79zm-1425.65 -595.98c19.05,4.08 32.83,11.39 41.33,21.94 8.5,10.54 13.26,22.62 14.28,36.23 1.02,13.61 -1.19,27.56 -6.64,41.84 -5.44,14.28 -12.76,27.21 -21.93,38.78 -9.19,11.56 -19.22,20.57 -30.11,27.04 -10.88,6.47 -21.08,8.33 -30.61,5.61 -10.88,-2.73 -19.9,-9.35 -27.04,-19.9 -7.14,-10.55 -12.25,-22.8 -15.31,-36.75 -3.06,-13.95 -3.92,-28.4 -2.56,-43.37 1.37,-14.97 5.11,-28.41 11.23,-40.31 6.13,-11.9 14.79,-20.91 26.02,-27.04 11.23,-6.12 25.01,-7.49 41.33,-4.08zm498.01 -71.44c9.52,-23.13 14.28,-45.07 14.28,-65.82 0,-20.75 -4.09,-36.23 -12.24,-46.43 -8.16,-10.21 -19.91,-12.59 -35.21,-7.14 -15.31,5.45 -33.5,22.79 -54.6,52.05 -15.65,21.76 -31.64,48.64 -47.96,80.62 -16.34,31.98 -32.32,67.18 -47.97,105.63 -15.64,38.43 -31.12,78.92 -46.43,121.43 -15.31,42.53 -29.42,85.22 -42.35,128.08 23.81,-27.21 49.32,-56.98 76.54,-89.29 27.21,-32.32 53.57,-64.98 79.09,-97.96 25.51,-33 48.64,-64.97 69.4,-95.93 20.75,-30.96 36.57,-59.36 47.45,-85.22zm1039.89 327.58c-8.16,0.68 -17,4.75 -26.53,12.24 -9.53,7.48 -19.23,17.53 -29.09,30.11 -9.86,12.6 -19.73,27.05 -29.59,43.37 -9.87,16.34 -18.89,33.35 -27.04,51.03 14.97,-10.21 30.95,-22.12 47.95,-35.72 17.01,-13.6 31.81,-26.87 44.4,-39.8 12.59,-12.93 21.43,-24.84 26.53,-35.72 5.11,-10.88 2.89,-19.39 -6.64,-25.51z"/>
  <path class="fil1" d="M1919.96 351.41l16.01 -38.65c39.89,-22.73 38.49,-30.02 50.38,-49.88l21.67 -6.56 44.34 -4.53 33.76 38.79 -7.9 50.17c0,0 -143.76,70.25 -158.26,10.66z"/>
 </g>
</svg>
